HIERARCHY
ROOT Pelvis
{
	OFFSET 0.000000 0.000000 0.000000
	CHANNELS 6 Xposition Yposition Zposition Xrotation Yrotation Zrotation
	JOINT LeftUpLeg_virtual
	{
		OFFSET 0.000000 0.000000 0.000000
		CHANNELS 3 Xrotation Yrotation Zrotation
		JOINT LeftUpLeg
		{
			OFFSET 18.735201 -5.666702 -4.541200
			CHANNELS 3 Xrotation Yrotation Zrotation
			JOINT LeftLeg
			{
				OFFSET -0.021200 -31.938179 0.493100
				CHANNELS 3 Xrotation Yrotation Zrotation
				JOINT LeftFoot
				{
					OFFSET 0.021200 -31.938179 -4.336299
					CHANNELS 3 Xrotation Yrotation Zrotation
					JOINT LeftToeBase
					{
						OFFSET 0.943001 -26.722000 15.023500
						CHANNELS 3 Xrotation Yrotation Zrotation
						End Site
						{
							OFFSET 0 0 0
						}
					}
				}
			}
		}
	}
	JOINT RightUpLeg_virtual
	{
		OFFSET 0.000000 0.000000 0.000000
		CHANNELS 3 Xrotation Yrotation Zrotation
		JOINT RightUpLeg
		{
			OFFSET -18.735201 -5.666702 -4.541200
			CHANNELS 3 Xrotation Yrotation Zrotation
			JOINT RightLeg
			{
				OFFSET 0.018946 -31.938133 0.493100
				CHANNELS 3 Xrotation Yrotation Zrotation
				JOINT RightFoot
				{
					OFFSET -0.018946 -31.938126 -4.336299
					CHANNELS 3 Xrotation Yrotation Zrotation
					JOINT RightToeBase
					{
						OFFSET -0.943001 -26.722004 15.023500
						CHANNELS 3 Xrotation Yrotation Zrotation
						End Site
						{
							OFFSET 0 0 0
						}
					}
				}
			}
		}
	}
	JOINT Hips_virtual
	{
		OFFSET 0.000000 0.000000 0.000000
		CHANNELS 3 Xrotation Yrotation Zrotation
		JOINT Hips
		{
			OFFSET -0.000000 -0.000000 -0.000000
			CHANNELS 3 Xrotation Yrotation Zrotation
			JOINT Spine
			{
				OFFSET 0.000000 10.199997 -0.299500
				CHANNELS 3 Xrotation Yrotation Zrotation
				JOINT Spine1
				{
					OFFSET 0.000000 11.900002 -1.516600
					CHANNELS 3 Xrotation Yrotation Zrotation
					JOINT Spine2
					{
						OFFSET 0.000000 13.600006 -2.842500
						CHANNELS 3 Xrotation Yrotation Zrotation
						JOINT Neck_virtual
						{
							OFFSET 0.000000 0.000000 0.000000
							CHANNELS 3 Xrotation Yrotation Zrotation
							JOINT Neck
							{
								OFFSET 0.000000 9.624100 -2.890100
								CHANNELS 3 Xrotation Yrotation Zrotation
								JOINT Head
								{
									OFFSET 0.000000 14.068802 -1.351900
									CHANNELS 3 Xrotation Yrotation Zrotation
									End Site
									{
										OFFSET 0 0 0
									}
								}
							}
						}
						JOINT LeftShoulder_virtual
						{
							OFFSET 0.000000 0.000000 0.000000
							CHANNELS 3 Xrotation Yrotation Zrotation
							JOINT LeftShoulder
							{
								OFFSET 15.263000 10.923401 -0.547700
								CHANNELS 3 Xrotation Yrotation Zrotation
								JOINT LeftArm
								{
									OFFSET 25.438599 -2.830597 -13.032500
									CHANNELS 3 Xrotation Yrotation Zrotation
									JOINT LeftForeArm
									{
										OFFSET 29.960503 0.000000 0.000000
										CHANNELS 3 Xrotation Yrotation Zrotation
										JOINT LeftHand
										{
											OFFSET 27.849251 0.000000 0.000000
											CHANNELS 3 Xrotation Yrotation Zrotation
											End Site
											{
												OFFSET 0 0 0
											}
										}
									}
								}
							}
						}
						JOINT RightShoulder_virtual
						{
							OFFSET 0.000000 0.000000 0.000000
							CHANNELS 3 Xrotation Yrotation Zrotation
							JOINT RightShoulder
							{
								OFFSET -15.263000 10.923401 -0.547700
								CHANNELS 3 Xrotation Yrotation Zrotation
								JOINT RightArm
								{
									OFFSET -25.438599 -2.830597 -13.032500
									CHANNELS 3 Xrotation Yrotation Zrotation
									JOINT RightForeArm
									{
										OFFSET -29.960503 0.000000 0.000000
										CHANNELS 3 Xrotation Yrotation Zrotation
										JOINT RightHand
										{
											OFFSET -27.849251 0.000000 0.000000
											CHANNELS 3 Xrotation Yrotation Zrotation
											End Site
											{
												OFFSET 0 0 0
											}
										}
									}
								}
							}
						}
					}
				}
			}
		}
	}
}
MOTION
Frames: 4
Frame Time: 0.03333333
-4.184651 85.707451 -0.157471 0.000000 0.000000 0.000000 -8.447455 -70.216257 -8.425822 -47.904389 -7.779100 10.045117 45.935918 -4.297529 1.193713 -4.994455 -5.305294 -6.224542 0.000000 0.000000 0.000000 14.213099 -50.822693 11.243747 -25.752265 -20.586176 -16.004243 44.305948 -0.422881 -1.313921 -9.667813 -3.195482 9.472374 0.000000 0.000000 0.000000 3.982590 -19.887575 1.376594 22.755089 -50.342889 19.099401 19.501157 7.110956 7.094763 9.150410 3.965820 4.417830 0.000000 0.000000 0.000000 9.670649 4.129758 3.569847 2.764595 1.399841 2.224844 0.000000 0.000000 0.000000 9.919014 4.554096 1.725555 3.899602 -0.297839 1.496679 -21.069657 -18.113991 -65.109120 -6.826844 -67.442558 -12.797078 0.000000 0.000000 0.000000 10.936695 4.874111 5.320664 0.752669 17.434947 28.097477 -27.365126 14.751356 50.141037 -9.430020 60.323343 8.431813 0.000000 0.000000 0.000000 
-4.157737 85.661644 -0.118285 0.000000 0.000000 0.000000 -8.749596 -70.322405 -8.736918 -48.033418 -7.773770 9.962376 45.888701 -4.296225 1.210090 -4.982338 -5.316410 -6.197995 0.000000 0.000000 0.000000 14.284700 -50.842262 11.234643 -25.652172 -20.598613 -16.030562 44.161134 -0.386275 -1.259013 -9.752817 -3.197901 9.573374 0.000000 0.000000 0.000000 3.998499 -19.881101 1.395103 22.493835 -50.192820 18.972157 19.433083 7.089483 7.115965 9.107731 3.976388 4.445270 0.000000 0.000000 0.000000 9.709137 4.124776 3.567849 2.776316 1.382097 2.210971 0.000000 0.000000 0.000000 9.972449 4.571068 1.742338 3.850213 -0.380808 1.404861 -21.318081 -18.191557 -65.458033 -7.207800 -67.920624 -13.253786 0.000000 0.000000 0.000000 11.049095 4.927856 5.327414 0.761735 17.362810 28.154402 -27.671630 14.574331 50.068647 -9.503904 60.251216 8.362481 0.000000 0.000000 0.000000 
-4.112978 85.579605 -0.048668 0.000000 0.000000 0.000000 -9.335736 -70.491644 -9.333093 -48.286391 -7.756228 9.808703 45.803990 -4.292167 1.236531 -4.963311 -5.332359 -6.153810 0.000000 0.000000 0.000000 14.399145 -50.875074 11.198519 -25.476889 -20.616299 -16.088992 43.906799 -0.318588 -1.151522 -9.898761 -3.204181 9.769879 0.000000 0.000000 0.000000 4.033589 -19.894799 1.439946 21.902735 -49.911160 18.661267 19.323662 7.046123 7.152275 9.039665 3.990162 4.493161 0.000000 0.000000 0.000000 9.782161 4.116389 3.565781 2.797090 1.347596 2.185255 0.000000 0.000000 0.000000 10.075838 4.599967 1.772381 3.755428 -0.520328 1.228707 -21.740584 -18.305600 -66.065838 -7.962921 -68.790134 -14.144583 0.000000 0.000000 0.000000 11.258389 5.024615 5.343138 0.772242 17.225597 28.259138 -28.228328 14.262547 49.940349 -9.636675 60.133026 8.239220 0.000000 0.000000 0.000000 
-4.064234 85.478241 0.037704 0.000000 0.000000 0.000000 -10.160108 -70.654748 -10.157433 -48.648774 -7.716023 9.604638 45.698801 -4.284284 1.264165 -4.944576 -5.345067 -6.105432 0.000000 0.000000 0.000000 14.511451 -50.903931 11.109324 -25.264820 -20.626632 -16.185117 43.598098 -0.228804 -0.997351 -10.068359 -3.215726 10.049704 0.000000 0.000000 0.000000 4.093737 -19.968026 1.522274 20.896856 -49.533806 18.088026 19.217571 6.981806 7.191539 8.972792 3.996218 4.549393 0.000000 0.000000 0.000000 9.883606 4.107534 3.566494 2.822853 1.298654 2.151215 0.000000 0.000000 0.000000 10.222707 4.633122 1.810495 3.623677 -0.673423 0.982730 -22.220555 -18.394954 -66.786764 -9.068011 -69.907123 -15.418561 0.000000 0.000000 0.000000 11.537273 5.146657 5.370813 0.773252 17.035873 28.396418 -28.935820 13.888596 49.784921 -9.803102 60.013129 8.086650 0.000000 0.000000 0.000000 
